<svg width="15" height="12" viewBox="0 0 15 12" fill="none" xmlns="http://www.w3.org/2000/svg">
<path d="M13.6807 1.39568C12.9676 1.40858 12.3755 2.07954 12.4117 2.84082C12.4238 3.26661 12.6172 3.6279 12.9072 3.87306C11.4086 6.01495 9.88586 6.18269 8.12139 2.63437C8.74983 2.29889 9.10031 1.44729 8.64106 0.595693C8.42353 0.182797 7.97637 -0.0236511 7.52921 0.00215495C7.51712 0.00215495 7.51712 0.00215495 7.50504 0.00215495C7.50504 0.00215495 7.49295 0.00215495 7.48087 0.00215495C7.03371 -0.0107481 6.59863 0.182797 6.36901 0.595693C5.90976 1.44729 6.26024 2.29889 6.88868 2.63437C5.12421 6.18269 3.60145 6.01495 2.10286 3.87306C2.39291 3.6279 2.58628 3.25371 2.59836 2.84082C2.62253 2.07954 2.04243 1.40858 1.32939 1.39568C0.592185 1.38278 0 2.00212 0 2.7892C0 3.55048 0.5801 4.18273 1.30522 4.18273C1.35357 4.18273 1.41399 4.18273 1.46233 4.16983L1.95784 9.35683C1.99409 9.76973 2.3204 10.0794 2.70713 10.0794H7.50504H12.3029C12.6897 10.0794 13.016 9.76973 13.0522 9.35683L13.5477 4.16983C13.5961 4.18273 13.6444 4.18273 13.7049 4.18273C14.4179 4.18273 15.0101 3.56338 15.0101 2.7892C15.0101 2.00212 14.4058 1.38278 13.6807 1.39568Z" fill="white"/>
<rect x="2.05469" y="10.8387" width="10.8769" height="1.16127" rx="0.580635" fill="white"/>
</svg>
